# xmcd CD database file
#
# Track frame offsets:
#	150
#	15373
#	25775
#	39352
#	52382
#	66520
#	81777
#	98107
#	102395
#	118977
#	131542
#	147357
#	161462
#	179014
#	202093
#
# Disc length: 3023 seconds
#
# Revision: 4
# Processed by: cddbd v1.5.2PL0 Copyright (c) Steve Scherf et al.
# Submitted via: CDex 1.51
#
DISCID=d90bcd0f
DTITLE=My Chemical Romance - Three Cheers For Sweet Revenge
DYEAR=2004
DGENRE=Rock
TTITLE0=Helena
TTITLE1=Give 'Em Hell, Kid
TTITLE2=To The End
TTITLE3=You Know What They Do To Guys Like Us In Prison
TTITLE4=I'm Not Okay (I Promise)
TTITLE5=The Ghost Of You
TTITLE6=The Jetset Life Is Gonna Kill You
TTITLE7=Interlude
TTITLE8=Thank You For The Venom
TTITLE9=Hang 'Em High
TTITLE10=It's Not A Fashion Statement, It's A Deathwish
TTITLE11=Cemetery Drive
TTITLE12=I Never Told You What I Do For A Living
TTITLE13=Bury Me In Black (Demo Version)
TTITLE14=Data Track
EXTD=YEAR: 2004
EXTT0=
EXTT1=
EXTT2=
EXTT3=
EXTT4=
EXTT5=
EXTT6=
EXTT7=
EXTT8=
EXTT9=
EXTT10=
EXTT11=
EXTT12=
EXTT13=
EXTT14=
PLAYORDER=
